<svg xmlns="http://www.w3.org/2000/svg" viewBox="0 0 334.15 93.2"><defs><style>.cls-1{fill:#f9f9f9;stroke:#131313;stroke-miterlimit:10;stroke-width:3px;}</style></defs><g id="Layer_2" data-name="Layer 2"><g id="Layer_1-2" data-name="Layer 1"><polygon class="cls-1" points="179.11 13.31 212.93 13.31 212.93 26.14 202.42 26.14 202.42 86.3 189.62 68 189.62 26.14 179.11 26.14 179.11 13.31"/><polygon class="cls-1" points="258.41 13.31 286.67 13.31 286.67 86.3 273.84 66.33 273.84 26.14 266.62 26.14 266.62 66.29 253.82 66.29 253.82 18.94 258.41 13.31"/><path class="cls-1" d="M216.93,13.28V68l12.79,18.31V54.1H236V66.3h12.83V18.9l-4.59-5.62ZM229.2,25.55h7.27l0,.28v16H229.2Z"/><polygon class="cls-1" points="330.71 66.29 295.3 66.29 290.71 60.7 290.71 13.31 330.71 13.31 319.61 26.11 303.51 26.11 303.51 33.6 314.37 33.6 314.37 46.43 303.51 46.43 303.51 53.49 318.84 53.49 330.71 66.29"/><polygon class="cls-1" points="170.95 52.61 195.88 88.59 182.52 88.59 158.26 53.85 155.97 53.85 155.97 88.59 144.26 72.51 144.26 13.31 155.97 13.31 155.97 42.1 163.28 42.1 163.28 2.02 174.99 2.02 174.99 48.54 170.95 52.61"/><polygon class="cls-1" points="62.1 52.69 87.27 88.59 72.65 88.59 72.58 88.59 47.55 54.37 42.41 54.37 42.41 86.39 29.58 68.09 29.58 19.86 42.41 19.86 42.41 41.54 53.17 41.54 53.17 14.29 15.24 14.29 3.43 1.5 61.41 1.5 66 7.09 66 48.78 62.1 52.69"/><polygon class="cls-1" points="129.34 53.49 141.17 66.29 111.73 66.29 107.14 60.7 107.14 13.27 139.23 13.27 139.23 26.11 119.94 26.11 119.94 53.49 129.34 53.49"/><path class="cls-1" d="M70.25,13.28V60.71l4.59,5.59H102.1V18.9l-4.59-5.62ZM82.52,54.06V25.55h7.24l.07.28V54.06Z"/></g></g></svg>