<svg xmlns="http://www.w3.org/2000/svg" viewBox="0 0 323.11 87.09"><defs><style>.cls-1{fill:#f9f9f9;}</style></defs><g id="Layer_2" data-name="Layer 2"><g id="Layer_1-2" data-name="Layer 1"><polygon class="cls-1" points="173.5 11.81 207.32 11.81 207.32 24.64 196.81 24.64 196.81 84.8 184.01 66.5 184.01 24.64 173.5 24.64 173.5 11.81"/><polygon class="cls-1" points="251.3 11.81 279.56 11.81 279.56 84.8 266.73 64.83 266.73 24.64 259.51 24.64 259.51 64.79 246.71 64.79 246.71 17.44 251.3 11.81"/><path class="cls-1" d="M210.82,11.78V66.5l12.79,18.31V52.6h6.23V64.8h12.83V17.4l-4.59-5.62Zm12.27,12.27h7.27l0,.28v16h-7.31Z"/><polygon class="cls-1" points="323.11 64.79 287.69 64.79 283.1 59.2 283.1 11.81 323.11 11.76 312 24.61 295.9 24.61 295.9 32.1 306.76 32.1 306.76 44.93 295.9 44.93 295.9 51.99 311.24 51.99 323.11 64.79"/><polygon class="cls-1" points="166.35 51.11 191.28 87.09 177.92 87.09 153.66 52.35 151.37 52.35 151.37 87.09 139.66 71.01 139.66 11.81 151.37 11.81 151.37 40.6 158.68 40.6 158.68 0.52 170.39 0.52 170.39 47.04 166.35 51.11"/><polygon class="cls-1" points="58.67 51.19 83.85 87.09 69.23 87.09 69.16 87.09 44.12 52.87 38.98 52.87 38.98 84.89 26.15 66.59 26.15 16.24 38.98 16.24 38.98 40.04 49.74 40.04 49.74 12.79 11.81 12.79 0 0 57.98 0 62.57 5.59 62.57 47.28 58.67 51.19"/><polygon class="cls-1" points="125.24 51.99 137.07 64.79 107.63 64.79 103.04 59.2 103.04 11.77 135.13 11.77 135.13 24.61 115.84 24.61 115.84 51.99 125.24 51.99"/><path class="cls-1" d="M67.65,11.78V59.21l4.59,5.59H99.5V17.4l-4.59-5.62ZM79.92,52.56V24.05h7.24l.07.28V52.56Z"/></g></g></svg>